<?xml version="1.0" encoding="iso-8859-1"?>
<!-- Generator: Adobe Illustrator 18.1.1, SVG Export Plug-In . SVG Version: 6.00 Build 0)  -->
<svg version="1.1" id="Capa_1" xmlns="http://www.w3.org/2000/svg" xmlns:xlink="http://www.w3.org/1999/xlink" x="0px" y="0px"
	 viewBox="0 0 18.82 18.82" style="enable-background:new 0 0 18.82 18.82;" xml:space="preserve">
<g>
	<g>
		<path style="fill:#030104;" d="M17.677,5.311H1.146C0.514,5.311,0,5.824,0,6.456v6.562c0,0.137,0.112,0.25,0.251,0.25h2.687
			c0.138,0,0.25-0.113,0.25-0.25V9.286h12.446v3.732c0,0.137,0.111,0.25,0.25,0.25h2.684c0.139,0,0.252-0.113,0.252-0.25V6.456
			C18.819,5.824,18.307,5.311,17.677,5.311z M2.785,8.117c-0.416,0-0.753-0.337-0.753-0.753s0.337-0.753,0.753-0.753
			c0.416,0,0.753,0.337,0.753,0.753S3.201,8.117,2.785,8.117z M16.216,7.72h-3.955V6.695h3.955V7.72z"/>
		<path style="fill:#030104;" d="M13.37,16.99H7.609l-2.171,0.014V10.09h-1.3v7.043c0,0-0.048,1.08,1.062,1.08
			c1.111,0,8.561,0,8.561,0c0.818,0,0.924-0.623,0.924-1.395V10.09h-1.299L13.37,16.99z"/>
		<rect x="6.078" y="11.961" style="fill:#030104;" width="6.547" height="1.131"/>
		<rect x="6.138" y="14.521" style="fill:#030104;" width="6.548" height="1.131"/>
		<path style="fill:#030104;" d="M5.337,1.862h8.031v2.736h1.254v-2.88c0-0.613-0.498-1.111-1.111-1.111H5.194
			c-0.613,0-1.111,0.499-1.111,1.111v2.88h1.255L5.337,1.862L5.337,1.862z"/>
	</g>
</g>
<g>
</g>
<g>
</g>
<g>
</g>
<g>
</g>
<g>
</g>
<g>
</g>
<g>
</g>
<g>
</g>
<g>
</g>
<g>
</g>
<g>
</g>
<g>
</g>
<g>
</g>
<g>
</g>
<g>
</g>
</svg>
